<svg xmlns="http://www.w3.org/2000/svg" version="1.1" xmlns:xlink="http://www.w3.org/1999/xlink" xmlns:svgjs="http://svgjs.dev/svgjs" width="1000" height="1125" viewBox="0 0 1000 1125"><g transform="matrix(1,0,0,1,1.7053025658242404e-13,0)"><svg viewBox="0 0 320 360" data-background-color="#046380" preserveAspectRatio="xMidYMid meet" height="1125" width="1000" xmlns="http://www.w3.org/2000/svg" xmlns:xlink="http://www.w3.org/1999/xlink"><g id="tight-bounds" transform="matrix(1,0,0,1,0,0)"><svg viewBox="0 0 320 360" height="360" width="320"><g><svg></svg></g><g><svg viewBox="0 0 320 360" height="360" width="320"><g><path xmlns="http://www.w3.org/2000/svg" d="M20.961 227.22l3.726 4.658-1.863-6.056c-0.466-2.795-3.726 0.466-1.863 1.398M25.153 224.425c1.397 2.329 2.795 4.658 2.795 6.987 0 3.261 2.795 4.658 5.123 5.589-3.261-3.726-5.124-13.974-7.918-12.576M204.017 26.929c7.918 0 15.371-0.932 23.756 0.931 20.495 5.124 37.729 15.371 49.374 29.811l32.606 52.169c1.397 13.042 4.192 27.482 3.726 43.319 3.261 0 2.795-4.658 6.521-5.59-3.726 9.316-5.59 20.961-6.521 34.469-2.329-7.453 0-18.632 0.466-24.687-3.261 5.124-5.124 1.397-5.124-0.932 0.466-3.726-1.397-3.261-2.795-4.658-5.124-4.658-8.384-9.782-12.11-17.7 2.329-6.055 2.795-14.905-4.658-19.563-2.329-1.397-5.124-3.726-6.521-7.453-1.863-5.124-5.124-11.179-4.193-19.097 0.466-2.329-6.987 5.124-11.179 1.863-18.166-12.576-36.332-27.016-58.224-39.127-11.645 0-20.029-4.192-24.221-9.316-3.726-4.658-0.932-10.713 4.658-11.179 3.261 0 6.987-0.932 9.782 0.932 0.466-1.863 2.329-4.192 4.657-4.192M157.904 16.215l0.932 0.466c4.658 0.932 6.987 7.453 12.11 5.124 0 3.261 0.466 6.521-0.466 8.85-1.397 3.726-5.59 3.726-8.85 3.726-31.208-1.863-49.374 11.179-68.471 22.358-5.124 3.261-10.713 5.59-14.906 9.782-20.029 18.632-41.921 35.866-47.045 70.335l-4.192 38.195c-0.466 4.192-5.124 8.384-4.192 13.508l3.26 22.824c-3.261-3.261-5.124 0.932-4.192 2.795 0.466 1.397 2.329 6.055 5.124 1.863 3.726 6.987 7.453 20.495 12.576 26.55 15.837 18.632 36.332 35.4 53.101 52.169 4.192-0.932 7.453-0.932 8.384-3.727 1.397 2.795-1.397 5.59-3.726 6.056 7.453 4.658 15.837 8.85 27.016 9.781 14.44 0.932 27.948 3.261 40.524 6.522 6.521-1.863 13.042-2.795 20.029-3.261 2.329 0 3.726-3.726 6.521-4.658l0.466-4.658c2.795 4.192 2.329-1.397 0.466-4.192 3.261 2.795 4.192 5.124 5.589 6.987 0-1.397 3.726-6.521 3.727-0.466l0.931-6.055c1.397-0.932 1.863 5.124 3.261 0.931 1.397-4.192 4.192-0.932 6.987-2.329-0.932 1.863-0.466 5.59 2.794 3.261l3.727-3.261c2.329 5.59 6.055 3.261 7.918 2.329 20.495-13.042 40.99-28.413 60.553-43.784l-0.466 6.055 2.329-7.453c2.329 2.329 4.192 0.466 5.124-0.931 2.795-4.658 6.521-9.316 12.577-13.508-7.453 20.029-16.303 35.866-27.482 48.908l-4.658 5.59c0 3.261-0.932 7.453-4.658 7.918-1.863 0.466-5.59-0.932-8.384 1.863-1.397 1.863 3.261 5.59-0.466 2.795-3.261-2.329-6.521 0-10.248 0.932-2.795 0.932 1.863 3.726 2.795 5.589 0.932 1.863 1.863 3.726 1.398 6.056l-5.124-5.59c-6.055 3.261-9.782 9.316-14.906 13.974-2.329 1.863-1.397 5.124-1.397 7.918-3.261 0-6.987-0.932-8.85 0.932-1.397 1.863-0.932 4.658-0.932 7.453-4.658-0.466-5.124-7.453-9.315-6.056-4.192 0.932-8.85 1.397-12.577 3.727 2.795 5.59-4.658 2.329-3.726 3.26-6.987-4.192-13.042-7.453-20.495-4.658-15.837-5.124-35.4-2.795-49.84-0.931 0-2.329 0.466-4.658-0.466-5.124-0.932 2.329-3.726 1.397-3.26 1.397-8.85-6.055-17.7-9.782-27.016-14.905-8.384 0.932-16.303-3.261-18.632-5.59-6.521-6.055-13.974-2.795-20.029-4.192-13.042-3.261-17.7-16.769-19.098-26.084-0.932-4.658-4.658-6.521-6.055-6.056-6.055-19.563-15.371-37.263-22.824-55.429-1.863-4.658-1.397-9.316-1.397-14.44 2.329 0.932 4.658 0.466 4.192-2.794-2.329-15.371-7.918-27.016-13.974-38.195 3.261-15.837 3.726-34.469 11.179-48.443 6.521-12.576 18.632-19.098 27.016-29.811 2.795-3.726 2.795-8.85 5.59-12.11 9.316-9.316 18.632-19.098 28.879-27.482 4.658-3.726 10.247 0 17.234-1.397 2.329-8.384 11.645-15.837 20.495-13.508 3.726 0.932 11.179-8.85 13.508-9.782 3.726-1.397 1.863 3.726 1.863 6.987 8.85-6.987 20.961-10.713 32.14-14.906" fill="#ffffff" fill-rule="nonzero" stroke="none" stroke-width="1" stroke-linecap="butt" stroke-linejoin="miter" stroke-miterlimit="10" stroke-dasharray="" stroke-dashoffset="0" font-family="none" font-weight="none" font-size="none" text-anchor="none" style="mix-blend-mode: normal" data-fill-palette-color="tertiary"></path></g><g transform="matrix(1,0,0,1,64,144.59722276476685)"><svg viewBox="0 0 192 70.80555447046632" height="70.80555447046632" width="192"><g><svg viewBox="0 0 192 70.80555447046632" height="70.80555447046632" width="192"><g><svg viewBox="0 0 192 70.80555447046632" height="70.80555447046632" width="192"><g><svg viewBox="0 0 192 70.80555447046632" height="70.80555447046632" width="192"><g id="textblocktransform"><svg viewBox="0 0 192 70.80555447046632" height="70.80555447046632" width="192" id="textblock"><g><svg viewBox="0 0 192 40.140932642487044" height="40.140932642487044" width="192"><g transform="matrix(1,0,0,1,0,0)"><svg width="192" viewBox="3.25 -33 192.99000549316406 40.349998474121094" height="40.140932642487044" data-palette-color="#ffffff"><path d="M14.55 0L3.25 0 3.25-1.25 7.25-2.1 7.25-30.9 3.25-31.75 3.25-33 14.9-33Q20.4-33 24.3-31.05 28.2-29.1 30.23-25.7 32.25-22.3 32.25-18L32.25-18Q32.25-12.45 30.08-8.43 27.9-4.4 23.95-2.2 20 0 14.55 0L14.55 0ZM15.25-31.25L15.25-31.25 10.25-31.25 10.25-1.75 15.5-1.75Q19.6-1.75 22.63-3.63 25.65-5.5 27.33-8.8 29-12.1 29-16.45L29-16.45Q29-20.9 27.4-24.25 25.8-27.6 22.73-29.43 19.65-31.25 15.25-31.25ZM45.6 0L37.4 0 37.4-1.25 39.8-1.75 50.75-28.25 51.8-28.25 62.65-1.95 65.4-1.25 65.4 0 56.1 0 56.1-1.25 59.7-1.85 56.15-10.55 45.3-10.55 41.85-1.8 45.6-1.25 45.6 0ZM50.7-24.05L45.95-12.1 55.55-12.1 50.7-24.05ZM79.7 0L70.3 0 70.3-1.25 73.75-2 73.75-26 70.3-26.75 70.3-28 79-28Q83.55-28 86.17-26.15 88.8-24.3 88.8-21.1L88.8-21.1Q88.8-18.5 87.15-16.73 85.5-14.95 82.8-14.05L82.8-14.05 91.09-1.8 93.95-1.25 93.95 0 88.84 0 80.25-13.3 76.39-13.3 76.39-2.05 79.7-1.25 79.7 0ZM79.34-26.35L79.34-26.35 76.39-26.35 76.39-14.95 79.59-14.95Q82.59-14.95 84.25-16.53 85.9-18.1 85.9-20.55L85.9-20.55Q85.9-23.2 84.22-24.78 82.55-26.35 79.34-26.35ZM112.74 0L102.29 0 102.29-1.25 106.19-2 106.19-13.3 96.99-26 93.94-26.75 93.94-28 103.04-28 103.04-26.75 100.09-26.15 100.09-25.95 108.24-14.8 115.49-25.95 115.49-26.1 112.44-26.75 112.44-28 120.79-28 120.79-26.75 117.84-26.15 108.84-13.15 108.84-2 112.74-1.25 112.74 0ZM124.09 7.35L124.09 7.35Q123.54 7.35 123.12 7.08 122.69 6.8 122.69 6.15L122.69 6.15Q122.69 6.1 122.79 5.63 122.89 5.15 123.09 4.15L123.09 4.15 123.34 4.15Q124.04 4.35 124.49 4.45 124.94 4.55 125.49 4.55L125.49 4.55Q126.44 4.55 127.09 4.05 127.74 3.55 128.12 2.13 128.49 0.7 128.49-2.15L128.49-2.15 128.49-26 125.14-26.75 125.14-28 134.54-28 134.54-26.75 131.14-26 131.14-8.95Q131.14-3.7 130.54-0.4 129.94 2.9 128.34 4.6L128.34 4.6Q127.19 5.8 126.54 6.4 125.89 7 125.37 7.18 124.84 7.35 124.09 7.35ZM155.09 0.5L155.09 0.5Q151.19 0.5 148.11-1.38 145.04-3.25 143.29-6.53 141.54-9.8 141.54-14L141.54-14Q141.54-18.2 143.29-21.5 145.04-24.8 148.11-26.68 151.19-28.55 155.09-28.55L155.09-28.55Q158.99-28.55 162.06-26.68 165.14-24.8 166.91-21.5 168.69-18.2 168.69-14L168.69-14Q168.69-9.8 166.91-6.53 165.14-3.25 162.06-1.38 158.99 0.5 155.09 0.5ZM155.99-1.25L155.99-1.25Q158.94-1.25 161.21-2.65 163.49-4.05 164.74-6.63 165.99-9.2 165.99-12.7L165.99-12.7Q165.99-17 164.44-20.18 162.89-23.35 160.26-25.1 157.64-26.85 154.34-26.85L154.34-26.85Q151.34-26.85 149.04-25.45 146.74-24.05 145.44-21.48 144.14-18.9 144.14-15.4L144.14-15.4Q144.14-11.1 145.74-7.93 147.34-4.75 150.01-3 152.69-1.25 155.99-1.25ZM196.24 0L175.44 0 175.44-1.25 178.84-2 178.84-26 175.44-26.75 175.44-28 195.04-28 195.04-21.1 193.99-21.1 192.34-26.35 181.49-26.35 181.49-15.3 189.49-15.3 190.44-18.8 191.44-18.8 191.44-10.3 190.44-10.3 189.49-13.7 181.49-13.7 181.49-1.65 193.54-1.65 195.24-7.3 196.24-7.3 196.24 0Z" opacity="1" transform="matrix(1,0,0,1,0,0)" fill="#ffffff" class="wordmark-text-0" data-fill-palette-color="primary" id="text-0"></path></svg></g></svg></g><g transform="matrix(1,0,0,1,0,45.998458097409326)"><svg viewBox="0 0 192 24.807096373056993" height="24.807096373056993" width="192"><g transform="matrix(1,0,0,1,0,0)"><svg width="192" viewBox="1.75 -37.5 386.989990234375 50" height="24.807096373056993" data-palette-color="#ffffff"><path d="M35.15-24.95L45.15-25Q45.15-24.95 45.2-24.25L45.2-24.25 42.3-23.95 40.5-23.55 31.55 0 28.55 0 22.7-19.8 15.95 0 12.95 0 5.15-23.35Q4.85-23.9 4.4-23.95L4.4-23.95 1.8-24.2Q1.75-24.5 1.75-24.95L1.75-24.95 12.25-25Q12.25-24.95 12.3-24.25L12.3-24.25 8.7-24 15.45-1.6 22.75-24.75 24.45-25 30.8-0.8 38.65-23.2Q38.8-23.5 38.5-23.7 38.2-23.9 37.8-23.95L37.8-23.95 35.2-24.2Q35.15-24.5 35.15-24.95L35.15-24.95ZM52.42-11.5L52.42-11.5Q52.42-0.7 60.82-0.7L60.82-0.7Q63.02-0.7 65.52-1.18 68.02-1.65 68.72-2.05L68.72-2.05 69.07-1.55Q67.92-0.8 65.29-0.3 62.67 0.2 60.49 0.2 58.32 0.2 56.59-0.25 54.87-0.7 53.07-1.85 51.27-3 50.22-5.45 49.17-7.9 49.17-11.45L49.17-11.45Q49.17-18.05 52.57-21.55L52.57-21.55Q56.12-25.2 60.82-25.2 65.52-25.2 67.99-22.6 70.47-20 70.47-15.3L70.47-15.3Q70.47-14.3 70.32-13.15L70.32-13.15 52.47-13.15Q52.42-12.6 52.42-11.5ZM67.52-15.65L67.52-15.65Q67.52-19.4 65.87-21.78 64.22-24.15 61.37-24.15L61.37-24.15Q57.67-24.15 55.12-20.9L55.12-20.9Q53.07-18.35 52.57-14.1L52.57-14.1 67.47-14.1Q67.52-14.65 67.52-15.65ZM85.44-35.45L85.44-35.45 85.44-23Q88.44-25.45 92.14-25.45L92.14-25.45Q95.54-25.45 98.54-23.35L98.54-23.35Q100.14-22.2 101.11-19.75 102.09-17.3 102.09-13.8L102.09-13.8Q102.09-7.15 98.79-3.8L98.79-3.8Q95.04 0 89.29 0L89.29 0Q87.14 0 85.01-0.35 82.89-0.7 82.19-1.15L82.19-1.15 82.19-35.85Q82.09-36.25 81.89-36.25L81.89-36.25 78.84-36.35 78.89-37.05Q82.04-37.5 83.21-37.5 84.39-37.5 84.91-36.85 85.44-36.2 85.44-35.45ZM85.44-22.05L85.44-22.05 85.44-0.9Q86.79-0.45 88.59-0.45L88.59-0.45Q93.49-0.45 96.16-3.9 98.84-7.35 98.84-13.55L98.84-13.55Q98.84-20.35 96.14-22.7L96.14-22.7Q94.04-24.55 91.29-24.55 88.54-24.55 85.44-22.05ZM152.18-35.45L152.18-35.45 152.18-2.6Q152.18-1.05 152.98-1.05L152.98-1.05 155.98-0.9 155.93-0.15Q153.53 0.25 150.93 0.25L150.93 0.25Q150.38 0.2 149.75-0.3 149.13-0.8 149.03-1.6L149.03-1.6Q146.18 0.2 142.43 0.2L142.43 0.2Q138.78 0.2 135.68-1.85L135.68-1.85Q133.93-3 132.85-5.48 131.78-7.95 131.78-11.5L131.78-11.5Q131.78-18.05 135.13-21.5L135.13-21.5Q138.68-25.2 143.23-25.2L143.23-25.2Q146.03-25.2 148.93-23.75L148.93-23.75 148.93-35.7Q148.93-36.25 148.63-36.25L148.63-36.25 145.58-36.35 145.63-37.05Q148.78-37.5 149.95-37.5 151.13-37.5 151.65-36.85 152.18-36.2 152.18-35.45ZM143.08-0.7L143.08-0.7Q146.13-0.7 148.93-2.05L148.93-2.05 148.93-22.95Q146.73-24.3 144.58-24.3L144.58-24.3Q140.28-24.3 137.65-21 135.03-17.7 135.03-11.55L135.03-11.55Q135.03-0.7 143.08-0.7ZM169.1-11.5L169.1-11.5Q169.1-0.7 177.5-0.7L177.5-0.7Q179.7-0.7 182.2-1.18 184.7-1.65 185.4-2.05L185.4-2.05 185.75-1.55Q184.6-0.8 181.97-0.3 179.35 0.2 177.17 0.2 175 0.2 173.27-0.25 171.55-0.7 169.75-1.85 167.95-3 166.9-5.45 165.85-7.9 165.85-11.45L165.85-11.45Q165.85-18.05 169.25-21.55L169.25-21.55Q172.8-25.2 177.5-25.2 182.2-25.2 184.67-22.6 187.15-20 187.15-15.3L187.15-15.3Q187.15-14.3 187-13.15L187-13.15 169.15-13.15Q169.1-12.6 169.1-11.5ZM184.2-15.65L184.2-15.65Q184.2-19.4 182.55-21.78 180.9-24.15 178.05-24.15L178.05-24.15Q174.35-24.15 171.8-20.9L171.8-20.9Q169.75-18.35 169.25-14.1L169.25-14.1 184.15-14.1Q184.2-14.65 184.2-15.65ZM213.27-24.95L222.47-25Q222.47-24.95 222.52-24.25L222.52-24.25 218.52-23.8 208.92 0 205.92 0 197.22-23.4Q196.92-23.85 196.47-23.95L196.47-23.95 193.87-24.2 193.82-24.95 204.37-25Q204.37-24.95 204.42-24.25L204.42-24.25 200.72-24 208.57-1.05 216.77-23.2Q216.92-23.45 216.59-23.68 216.27-23.9 215.92-23.95L215.92-23.95 213.32-24.2 213.27-24.95ZM230.24-11.5L230.24-11.5Q230.24-0.7 238.64-0.7L238.64-0.7Q240.84-0.7 243.34-1.18 245.84-1.65 246.54-2.05L246.54-2.05 246.89-1.55Q245.74-0.8 243.11-0.3 240.49 0.2 238.31 0.2 236.14 0.2 234.41-0.25 232.69-0.7 230.89-1.85 229.09-3 228.04-5.45 226.99-7.9 226.99-11.45L226.99-11.45Q226.99-18.05 230.39-21.55L230.39-21.55Q233.94-25.2 238.64-25.2 243.34-25.2 245.81-22.6 248.29-20 248.29-15.3L248.29-15.3Q248.29-14.3 248.14-13.15L248.14-13.15 230.29-13.15Q230.24-12.6 230.24-11.5ZM245.34-15.65L245.34-15.65Q245.34-19.4 243.69-21.78 242.04-24.15 239.19-24.15L239.19-24.15Q235.49-24.15 232.94-20.9L232.94-20.9Q230.89-18.35 230.39-14.1L230.39-14.1 245.29-14.1Q245.34-14.65 245.34-15.65ZM267.46 0L257.41 0.05 257.46-0.65 260.06-1Q260.41-1.05 260.51-1.5L260.51-1.5 260.51-35.7Q260.51-36.25 260.21-36.25L260.21-36.25 257.16-36.35 257.21-37.05Q260.36-37.5 261.53-37.5 262.71-37.5 263.23-36.85 263.76-36.2 263.76-35.45L263.76-35.45 263.76-1 267.51-0.75Q267.51-0.7 267.46 0L267.46 0ZM288.55 0.2Q283.33 0.2 280.1-2.8 276.88-5.8 276.88-11.98 276.88-18.15 280.3-21.68 283.73-25.2 288.93-25.2 294.13-25.2 297.38-22.2 300.63-19.2 300.63-13.03 300.63-6.85 297.2-3.33 293.78 0.2 288.55 0.2ZM288.88-24.3Q285.13-24.3 282.63-21.05 280.13-17.8 280.13-12.23 280.13-6.65 282.5-3.68 284.88-0.7 288.63-0.7 292.38-0.7 294.88-3.95 297.38-7.2 297.38-12.75 297.38-18.3 295-21.3 292.63-24.3 288.88-24.3ZM319.8 12.45L309.25 12.5 309.3 11.8 311.9 11.45Q312.35 11.4 312.35 10.75L312.35 10.75 312.35-23.35Q312.25-23.75 312.05-23.75L312.05-23.75 309-23.85 309.05-24.55Q312.2-25 313.35-25 314.5-25 315-24.43 315.5-23.85 315.6-23.15L315.6-23.15Q318.75-25.45 322.3-25.45L322.3-25.45Q325.7-25.45 328.7-23.35L328.7-23.35Q330.3-22.2 331.27-19.75 332.25-17.3 332.25-13.8L332.25-13.8Q332.25-7.15 328.95-3.8L328.95-3.8Q325.2 0 319.25 0L319.25 0Q317.5 0 315.6-0.25L315.6-0.25 315.6 11.45 319.85 11.7Q319.8 12.4 319.8 12.45L319.8 12.45ZM315.6-22.15L315.6-22.15 315.6-1.3Q317.05-0.95 318.75-0.95L318.75-0.95Q323.65-0.95 326.32-4.28 329-7.6 329-13.55L329-13.55Q329-20.35 326.3-22.7L326.3-22.7Q324.2-24.55 321.6-24.55 319-24.55 315.6-22.15ZM344.62-11.5L344.62-11.5Q344.62-0.7 353.02-0.7L353.02-0.7Q355.22-0.7 357.72-1.18 360.22-1.65 360.92-2.05L360.92-2.05 361.27-1.55Q360.12-0.8 357.49-0.3 354.87 0.2 352.69 0.2 350.52 0.2 348.79-0.25 347.07-0.7 345.27-1.85 343.47-3 342.42-5.45 341.37-7.9 341.37-11.45L341.37-11.45Q341.37-18.05 344.77-21.55L344.77-21.55Q348.32-25.2 353.02-25.2 357.72-25.2 360.19-22.6 362.67-20 362.67-15.3L362.67-15.3Q362.67-14.3 362.52-13.15L362.52-13.15 344.67-13.15Q344.62-12.6 344.62-11.5ZM359.72-15.65L359.72-15.65Q359.72-19.4 358.07-21.78 356.42-24.15 353.57-24.15L353.57-24.15Q349.87-24.15 347.32-20.9L347.32-20.9Q345.27-18.35 344.77-14.1L344.77-14.1 359.67-14.1Q359.72-14.65 359.72-15.65ZM377.59-22.95L377.59-22.95 377.59-18.95Q381.54-24.75 385.34-24.85L385.34-24.85Q385.64-24.85 385.94-24.85L385.94-24.85 388.74-24.5 387.44-21.5Q386.49-22.45 384.99-22.45L384.99-22.45Q381.34-22.4 377.59-17.6L377.59-17.6 377.59-1 381.84-0.75Q381.84-0.7 381.79 0L381.79 0 371.29 0.05Q371.29-0.4 371.34-0.65L371.34-0.65 373.94-1Q374.34-1.05 374.34-1.7L374.34-1.7 374.34-23.4Q374.24-23.75 374.04-23.75L374.04-23.75 371.04-23.85 371.09-24.55Q373.79-25 375.19-25 376.59-25 377.09-24.35 377.59-23.7 377.59-22.95Z" opacity="1" transform="matrix(1,0,0,1,0,0)" fill="#ffffff" class="slogan-text-1" data-fill-palette-color="secondary" id="text-1"></path></svg></g></svg></g></svg></g></svg></g><g></g></svg></g></svg></g></svg></g></svg></g><defs></defs></svg><rect width="320" height="360" fill="none" stroke="none" visibility="hidden"></rect></g></svg></g></svg>